<svg xmlns="http://www.w3.org/2000/svg" viewBox="0 0 1000 200" preserveAspectRatio="none">
  <defs>
    <linearGradient id="line" x1="0" y1="0" x2="1" y2="0">
      <stop offset="0%" stop-color="#E8A87C" stop-opacity="0.0"/>
      <stop offset="8%" stop-color="#E8A87C" stop-opacity="0.95"/>
      <stop offset="92%" stop-color="#E8A87C" stop-opacity="0.95"/>
      <stop offset="100%" stop-color="#E8A87C" stop-opacity="0.0"/>
    </linearGradient>
    <linearGradient id="fill" x1="0" y1="0" x2="0" y2="1">
      <stop offset="0%" stop-color="#E8A87C" stop-opacity="0.35"/>
      <stop offset="100%" stop-color="#E8A87C" stop-opacity="0.0"/>
    </linearGradient>
  </defs>

  <!-- 中线参考 -->
  <line x1="0" y1="100" x2="1000" y2="100" stroke="#2E3645" stroke-width="1" stroke-dasharray="2 6"/>

  <!-- 填充区 -->
  <path d="
    M 0 100
    L 40 100
    L 80 100
    L 100 100
    L 120 60
    L 140 150
    L 160 70
    L 180 100
    L 220 100
    L 250 100
    L 280 100
    L 310 100
    L 340 50
    L 360 160
    L 380 80
    L 400 100
    L 460 100
    L 500 100
    L 540 100
    L 570 100
    L 600 100
    L 630 55
    L 655 155
    L 675 75
    L 695 100
    L 740 100
    L 780 100
    L 820 100
    L 860 100
    L 890 60
    L 910 150
    L 930 70
    L 950 100
    L 1000 100
    L 1000 200
    L 0 200
    Z
  " fill="url(#fill)"/>

  <!-- 主曲线 -->
  <path d="
    M 0 100
    L 40 100
    L 80 100
    L 100 100
    L 120 60
    L 140 150
    L 160 70
    L 180 100
    L 220 100
    L 250 100
    L 280 100
    L 310 100
    L 340 50
    L 360 160
    L 380 80
    L 400 100
    L 460 100
    L 500 100
    L 540 100
    L 570 100
    L 600 100
    L 630 55
    L 655 155
    L 675 75
    L 695 100
    L 740 100
    L 780 100
    L 820 100
    L 860 100
    L 890 60
    L 910 150
    L 930 70
    L 950 100
    L 1000 100
  " fill="none" stroke="url(#line)" stroke-width="2.5" stroke-linecap="round" stroke-linejoin="round"/>

  <!-- 高亮点 -->
  <circle cx="340" cy="50" r="4" fill="#E8A87C"/>
  <circle cx="630" cy="55" r="4" fill="#E8A87C"/>
  <circle cx="890" cy="60" r="4" fill="#E8A87C"/>
  <circle cx="340" cy="50" r="8" fill="none" stroke="#E8A87C" stroke-width="1" opacity="0.4"/>
</svg>
